<mxfile host="app.diagrams.net" agent="Mozilla/5.0 (Windows NT 10.0; Win64; x64) AppleWebKit/537.36 (KHTML, like Gecko) Chrome/131.0.0.0 Safari/537.36" version="26.0.2">
  <diagram name="Page-1" id="c37626ed-c26b-45fb-9056-f9ebc6bb27b6">
    <mxGraphModel dx="5970" dy="5290" grid="1" gridSize="10" guides="1" tooltips="1" connect="1" arrows="1" fold="1" page="0" pageScale="1" pageWidth="1100" pageHeight="850" background="none" math="0" shadow="0">
      <root>
        <mxCell id="0" />
        <mxCell id="1" parent="0" />
        <mxCell id="Sa-cBsodcqxKnAaQ6hPb-1" value="" style="shape=mxgraph.cisco.hubs_and_gateways.generic_gateway;sketch=0;html=1;pointerEvents=1;dashed=0;fillColor=#036897;strokeColor=#ffffff;strokeWidth=2;verticalLabelPosition=bottom;verticalAlign=top;align=center;outlineConnect=0;" vertex="1" parent="1">
          <mxGeometry x="4090" y="-692" width="66" height="74" as="geometry" />
        </mxCell>
        <mxCell id="Sa-cBsodcqxKnAaQ6hPb-2" value="" style="shape=mxgraph.cisco.switches.workgroup_switch;sketch=0;html=1;pointerEvents=1;dashed=0;fillColor=#036897;strokeColor=#ffffff;strokeWidth=2;verticalLabelPosition=bottom;verticalAlign=top;align=center;outlineConnect=0;" vertex="1" parent="1">
          <mxGeometry x="3900" y="207" width="101" height="50" as="geometry" />
        </mxCell>
        <mxCell id="Sa-cBsodcqxKnAaQ6hPb-3" value="" style="shape=mxgraph.cisco.switches.workgroup_switch;sketch=0;html=1;pointerEvents=1;dashed=0;fillColor=#036897;strokeColor=#ffffff;strokeWidth=2;verticalLabelPosition=bottom;verticalAlign=top;align=center;outlineConnect=0;" vertex="1" parent="1">
          <mxGeometry x="4110" y="202" width="101" height="50" as="geometry" />
        </mxCell>
        <mxCell id="Sa-cBsodcqxKnAaQ6hPb-4" value="" style="shape=mxgraph.cisco.switches.workgroup_switch;sketch=0;html=1;pointerEvents=1;dashed=0;fillColor=#036897;strokeColor=#ffffff;strokeWidth=2;verticalLabelPosition=bottom;verticalAlign=top;align=center;outlineConnect=0;" vertex="1" parent="1">
          <mxGeometry x="4280" y="192" width="101" height="50" as="geometry" />
        </mxCell>
        <mxCell id="Sa-cBsodcqxKnAaQ6hPb-5" value="" style="shape=mxgraph.cisco.switches.workgroup_switch;sketch=0;html=1;pointerEvents=1;dashed=0;fillColor=#036897;strokeColor=#ffffff;strokeWidth=2;verticalLabelPosition=bottom;verticalAlign=top;align=center;outlineConnect=0;" vertex="1" parent="1">
          <mxGeometry x="4440" y="192" width="101" height="50" as="geometry" />
        </mxCell>
        <mxCell id="Sa-cBsodcqxKnAaQ6hPb-8" value="" style="shape=mxgraph.cisco.wireless.ground_terminal;sketch=0;html=1;pointerEvents=1;dashed=0;fillColor=#036897;strokeColor=#ffffff;strokeWidth=2;verticalLabelPosition=bottom;verticalAlign=top;align=center;outlineConnect=0;" vertex="1" parent="1">
          <mxGeometry x="4480" y="-780" width="99" height="162" as="geometry" />
        </mxCell>
        <mxCell id="Sa-cBsodcqxKnAaQ6hPb-10" value="" style="shape=mxgraph.cisco.modems_and_phones.phone;sketch=0;html=1;pointerEvents=1;dashed=0;fillColor=#036897;strokeColor=#ffffff;strokeWidth=2;verticalLabelPosition=bottom;verticalAlign=top;align=center;outlineConnect=0;" vertex="1" parent="1">
          <mxGeometry x="4200" y="562" width="64" height="46" as="geometry" />
        </mxCell>
        <mxCell id="Sa-cBsodcqxKnAaQ6hPb-11" value="" style="shape=mxgraph.cisco.modems_and_phones.phone;sketch=0;html=1;pointerEvents=1;dashed=0;fillColor=#036897;strokeColor=#ffffff;strokeWidth=2;verticalLabelPosition=bottom;verticalAlign=top;align=center;outlineConnect=0;" vertex="1" parent="1">
          <mxGeometry x="4300" y="552" width="64" height="46" as="geometry" />
        </mxCell>
        <mxCell id="Sa-cBsodcqxKnAaQ6hPb-12" value="" style="shape=mxgraph.cisco.modems_and_phones.phone;sketch=0;html=1;pointerEvents=1;dashed=0;fillColor=#036897;strokeColor=#ffffff;strokeWidth=2;verticalLabelPosition=bottom;verticalAlign=top;align=center;outlineConnect=0;" vertex="1" parent="1">
          <mxGeometry x="4430" y="542" width="64" height="46" as="geometry" />
        </mxCell>
        <mxCell id="Sa-cBsodcqxKnAaQ6hPb-13" value="" style="shape=mxgraph.cisco.modems_and_phones.phone;sketch=0;html=1;pointerEvents=1;dashed=0;fillColor=#036897;strokeColor=#ffffff;strokeWidth=2;verticalLabelPosition=bottom;verticalAlign=top;align=center;outlineConnect=0;" vertex="1" parent="1">
          <mxGeometry x="4547" y="542" width="64" height="46" as="geometry" />
        </mxCell>
        <mxCell id="Sa-cBsodcqxKnAaQ6hPb-14" value="" style="shape=mxgraph.cisco.modems_and_phones.phone;sketch=0;html=1;pointerEvents=1;dashed=0;fillColor=#036897;strokeColor=#ffffff;strokeWidth=2;verticalLabelPosition=bottom;verticalAlign=top;align=center;outlineConnect=0;" vertex="1" parent="1">
          <mxGeometry x="4680" y="552" width="64" height="46" as="geometry" />
        </mxCell>
        <mxCell id="Sa-cBsodcqxKnAaQ6hPb-15" value="" style="shape=mxgraph.cisco.modems_and_phones.phone;sketch=0;html=1;pointerEvents=1;dashed=0;fillColor=#036897;strokeColor=#ffffff;strokeWidth=2;verticalLabelPosition=bottom;verticalAlign=top;align=center;outlineConnect=0;" vertex="1" parent="1">
          <mxGeometry x="4820" y="562" width="64" height="46" as="geometry" />
        </mxCell>
        <mxCell id="Sa-cBsodcqxKnAaQ6hPb-16" value="" style="shape=mxgraph.cisco.misc.ip_communicator;sketch=0;html=1;pointerEvents=1;dashed=0;fillColor=#036897;strokeColor=#ffffff;strokeWidth=2;verticalLabelPosition=bottom;verticalAlign=top;align=center;outlineConnect=0;" vertex="1" parent="1">
          <mxGeometry x="1420" y="526" width="136" height="74" as="geometry" />
        </mxCell>
        <mxCell id="Sa-cBsodcqxKnAaQ6hPb-17" value="" style="shape=mxgraph.cisco.security.firewall;sketch=0;html=1;pointerEvents=1;dashed=0;fillColor=#036897;strokeColor=#ffffff;strokeWidth=2;verticalLabelPosition=bottom;verticalAlign=top;align=center;outlineConnect=0;direction=north;" vertex="1" parent="1">
          <mxGeometry x="4160.25" y="-458" width="220.75" height="107.75" as="geometry" />
        </mxCell>
        <mxCell id="Sa-cBsodcqxKnAaQ6hPb-18" value="" style="shape=mxgraph.cisco.switches.layer_3_switch;sketch=0;html=1;pointerEvents=1;dashed=0;fillColor=#036897;strokeColor=#ffffff;strokeWidth=2;verticalLabelPosition=bottom;verticalAlign=top;align=center;outlineConnect=0;" vertex="1" parent="1">
          <mxGeometry x="4000" y="-218" width="64" height="64" as="geometry" />
        </mxCell>
        <mxCell id="Sa-cBsodcqxKnAaQ6hPb-19" value="" style="shape=mxgraph.cisco.switches.layer_3_switch;sketch=0;html=1;pointerEvents=1;dashed=0;fillColor=#036897;strokeColor=#ffffff;strokeWidth=2;verticalLabelPosition=bottom;verticalAlign=top;align=center;outlineConnect=0;" vertex="1" parent="1">
          <mxGeometry x="4470" y="-208" width="64" height="64" as="geometry" />
        </mxCell>
        <mxCell id="Sa-cBsodcqxKnAaQ6hPb-20" value="" style="shape=mxgraph.cisco.wireless.wireless_transport;sketch=0;html=1;pointerEvents=1;dashed=0;fillColor=#036897;strokeColor=#ffffff;strokeWidth=2;verticalLabelPosition=bottom;verticalAlign=top;align=center;outlineConnect=0;" vertex="1" parent="1">
          <mxGeometry x="3790" y="488" width="77" height="54" as="geometry" />
        </mxCell>
        <mxCell id="Sa-cBsodcqxKnAaQ6hPb-21" value="" style="shape=mxgraph.cisco.wireless.wireless_transport;sketch=0;html=1;pointerEvents=1;dashed=0;fillColor=#036897;strokeColor=#ffffff;strokeWidth=2;verticalLabelPosition=bottom;verticalAlign=top;align=center;outlineConnect=0;" vertex="1" parent="1">
          <mxGeometry x="3790" y="562" width="77" height="54" as="geometry" />
        </mxCell>
        <mxCell id="Sa-cBsodcqxKnAaQ6hPb-22" value="" style="verticalLabelPosition=bottom;html=1;verticalAlign=top;align=center;shape=mxgraph.floorplan.wallCorner;fillColor=strokeColor;direction=south;" vertex="1" parent="1">
          <mxGeometry x="1840" y="320" width="340" height="1340" as="geometry" />
        </mxCell>
        <mxCell id="Sa-cBsodcqxKnAaQ6hPb-23" value="" style="verticalLabelPosition=bottom;html=1;verticalAlign=top;align=center;shape=mxgraph.floorplan.wallCorner;fillColor=strokeColor;" vertex="1" parent="1">
          <mxGeometry x="1380" y="320" width="470" height="1330" as="geometry" />
        </mxCell>
        <mxCell id="Sa-cBsodcqxKnAaQ6hPb-25" value="" style="verticalLabelPosition=bottom;html=1;verticalAlign=top;align=center;shape=mxgraph.floorplan.doorUneven;dx=0.5;direction=west;" vertex="1" parent="1">
          <mxGeometry x="1640" y="1565" width="280" height="85" as="geometry" />
        </mxCell>
        <mxCell id="Sa-cBsodcqxKnAaQ6hPb-26" value="" style="verticalLabelPosition=bottom;html=1;verticalAlign=top;align=center;shape=mxgraph.floorplan.wall;fillColor=strokeColor;" vertex="1" parent="1">
          <mxGeometry x="1390" y="1640" width="250" height="10" as="geometry" />
        </mxCell>
        <mxCell id="Sa-cBsodcqxKnAaQ6hPb-27" value="" style="verticalLabelPosition=bottom;html=1;verticalAlign=top;align=center;shape=mxgraph.floorplan.wall;fillColor=strokeColor;" vertex="1" parent="1">
          <mxGeometry x="1920" y="1640" width="250" height="10" as="geometry" />
        </mxCell>
        <mxCell id="Sa-cBsodcqxKnAaQ6hPb-28" value="" style="shape=mxgraph.cisco.misc.ip_communicator;sketch=0;html=1;pointerEvents=1;dashed=0;fillColor=#036897;strokeColor=#ffffff;strokeWidth=2;verticalLabelPosition=bottom;verticalAlign=top;align=center;outlineConnect=0;" vertex="1" parent="1">
          <mxGeometry x="1420" y="680" width="136" height="74" as="geometry" />
        </mxCell>
        <mxCell id="Sa-cBsodcqxKnAaQ6hPb-29" value="" style="shape=mxgraph.cisco.misc.ip_communicator;sketch=0;html=1;pointerEvents=1;dashed=0;fillColor=#036897;strokeColor=#ffffff;strokeWidth=2;verticalLabelPosition=bottom;verticalAlign=top;align=center;outlineConnect=0;" vertex="1" parent="1">
          <mxGeometry x="1420" y="796" width="136" height="74" as="geometry" />
        </mxCell>
        <mxCell id="Sa-cBsodcqxKnAaQ6hPb-30" value="" style="shape=mxgraph.cisco.misc.ip_communicator;sketch=0;html=1;pointerEvents=1;dashed=0;fillColor=#036897;strokeColor=#ffffff;strokeWidth=2;verticalLabelPosition=bottom;verticalAlign=top;align=center;outlineConnect=0;" vertex="1" parent="1">
          <mxGeometry x="1420" y="950" width="136" height="74" as="geometry" />
        </mxCell>
        <mxCell id="Sa-cBsodcqxKnAaQ6hPb-31" value="" style="shape=mxgraph.cisco.misc.ip_communicator;sketch=0;html=1;pointerEvents=1;dashed=0;fillColor=#036897;strokeColor=#ffffff;strokeWidth=2;verticalLabelPosition=bottom;verticalAlign=top;align=center;outlineConnect=0;" vertex="1" parent="1">
          <mxGeometry x="1410" y="1067" width="136" height="74" as="geometry" />
        </mxCell>
        <mxCell id="Sa-cBsodcqxKnAaQ6hPb-32" value="" style="shape=mxgraph.cisco.misc.ip_communicator;sketch=0;html=1;pointerEvents=1;dashed=0;fillColor=#036897;strokeColor=#ffffff;strokeWidth=2;verticalLabelPosition=bottom;verticalAlign=top;align=center;outlineConnect=0;" vertex="1" parent="1">
          <mxGeometry x="1410" y="1221" width="136" height="74" as="geometry" />
        </mxCell>
        <mxCell id="Sa-cBsodcqxKnAaQ6hPb-33" value="" style="shape=mxgraph.cisco.misc.ip_communicator;sketch=0;html=1;pointerEvents=1;dashed=0;fillColor=#036897;strokeColor=#ffffff;strokeWidth=2;verticalLabelPosition=bottom;verticalAlign=top;align=center;outlineConnect=0;" vertex="1" parent="1">
          <mxGeometry x="1410" y="1337" width="136" height="74" as="geometry" />
        </mxCell>
        <mxCell id="Sa-cBsodcqxKnAaQ6hPb-34" value="" style="shape=mxgraph.cisco.misc.ip_communicator;sketch=0;html=1;pointerEvents=1;dashed=0;fillColor=#036897;strokeColor=#ffffff;strokeWidth=2;verticalLabelPosition=bottom;verticalAlign=top;align=center;outlineConnect=0;" vertex="1" parent="1">
          <mxGeometry x="1410" y="1491" width="136" height="74" as="geometry" />
        </mxCell>
        <mxCell id="Sa-cBsodcqxKnAaQ6hPb-35" value="" style="shape=mxgraph.cisco.misc.ip_communicator;sketch=0;html=1;pointerEvents=1;dashed=0;fillColor=#036897;strokeColor=#ffffff;strokeWidth=2;verticalLabelPosition=bottom;verticalAlign=top;align=center;outlineConnect=0;" vertex="1" parent="1">
          <mxGeometry x="1990" y="1491" width="136" height="74" as="geometry" />
        </mxCell>
        <mxCell id="Sa-cBsodcqxKnAaQ6hPb-36" value="" style="shape=mxgraph.cisco.misc.ip_communicator;sketch=0;html=1;pointerEvents=1;dashed=0;fillColor=#036897;strokeColor=#ffffff;strokeWidth=2;verticalLabelPosition=bottom;verticalAlign=top;align=center;outlineConnect=0;" vertex="1" parent="1">
          <mxGeometry x="1990" y="1337" width="136" height="74" as="geometry" />
        </mxCell>
        <mxCell id="Sa-cBsodcqxKnAaQ6hPb-37" value="" style="shape=mxgraph.cisco.misc.ip_communicator;sketch=0;html=1;pointerEvents=1;dashed=0;fillColor=#036897;strokeColor=#ffffff;strokeWidth=2;verticalLabelPosition=bottom;verticalAlign=top;align=center;outlineConnect=0;" vertex="1" parent="1">
          <mxGeometry x="1990" y="1221" width="136" height="74" as="geometry" />
        </mxCell>
        <mxCell id="Sa-cBsodcqxKnAaQ6hPb-38" value="" style="shape=mxgraph.cisco.misc.ip_communicator;sketch=0;html=1;pointerEvents=1;dashed=0;fillColor=#036897;strokeColor=#ffffff;strokeWidth=2;verticalLabelPosition=bottom;verticalAlign=top;align=center;outlineConnect=0;" vertex="1" parent="1">
          <mxGeometry x="1990" y="1067" width="136" height="74" as="geometry" />
        </mxCell>
        <mxCell id="Sa-cBsodcqxKnAaQ6hPb-39" value="" style="shape=mxgraph.cisco.misc.ip_communicator;sketch=0;html=1;pointerEvents=1;dashed=0;fillColor=#036897;strokeColor=#ffffff;strokeWidth=2;verticalLabelPosition=bottom;verticalAlign=top;align=center;outlineConnect=0;" vertex="1" parent="1">
          <mxGeometry x="2000" y="950" width="136" height="74" as="geometry" />
        </mxCell>
        <mxCell id="Sa-cBsodcqxKnAaQ6hPb-40" value="" style="shape=mxgraph.cisco.misc.ip_communicator;sketch=0;html=1;pointerEvents=1;dashed=0;fillColor=#036897;strokeColor=#ffffff;strokeWidth=2;verticalLabelPosition=bottom;verticalAlign=top;align=center;outlineConnect=0;" vertex="1" parent="1">
          <mxGeometry x="2000" y="796" width="136" height="74" as="geometry" />
        </mxCell>
        <mxCell id="Sa-cBsodcqxKnAaQ6hPb-41" value="" style="shape=mxgraph.cisco.misc.ip_communicator;sketch=0;html=1;pointerEvents=1;dashed=0;fillColor=#036897;strokeColor=#ffffff;strokeWidth=2;verticalLabelPosition=bottom;verticalAlign=top;align=center;outlineConnect=0;" vertex="1" parent="1">
          <mxGeometry x="2000" y="680" width="136" height="74" as="geometry" />
        </mxCell>
        <mxCell id="Sa-cBsodcqxKnAaQ6hPb-42" value="" style="shape=mxgraph.cisco.misc.ip_communicator;sketch=0;html=1;pointerEvents=1;dashed=0;fillColor=#036897;strokeColor=#ffffff;strokeWidth=2;verticalLabelPosition=bottom;verticalAlign=top;align=center;outlineConnect=0;" vertex="1" parent="1">
          <mxGeometry x="2000" y="526" width="136" height="74" as="geometry" />
        </mxCell>
        <mxCell id="Sa-cBsodcqxKnAaQ6hPb-45" value="" style="strokeColor=#666666;html=1;verticalLabelPosition=bottom;labelBackgroundColor=#ffffff;verticalAlign=top;outlineConnect=0;shadow=0;dashed=0;shape=mxgraph.rackGeneral.rackCabinet3;fillColor2=#f4f4f4;container=1;collapsible=0;childLayout=rack;allowGaps=1;marginLeft=33;marginRight=9;marginTop=21;marginBottom=22;textColor=#666666;numDisp=ascend;" vertex="1" parent="1">
          <mxGeometry x="1680" y="330" width="200" height="120" as="geometry" />
        </mxCell>
        <mxCell id="Sa-cBsodcqxKnAaQ6hPb-6" value="" style="shape=mxgraph.cisco.switches.workgroup_switch;sketch=0;html=1;pointerEvents=1;dashed=0;fillColor=#036897;strokeColor=#ffffff;strokeWidth=2;verticalLabelPosition=bottom;verticalAlign=top;align=center;outlineConnect=0;" vertex="1" parent="Sa-cBsodcqxKnAaQ6hPb-45">
          <mxGeometry x="33" y="30" width="158" height="50" as="geometry" />
        </mxCell>
        <mxCell id="Sa-cBsodcqxKnAaQ6hPb-7" style="edgeStyle=orthogonalEdgeStyle;rounded=0;orthogonalLoop=1;jettySize=auto;html=1;exitX=0.5;exitY=0.98;exitDx=0;exitDy=0;exitPerimeter=0;" edge="1" parent="Sa-cBsodcqxKnAaQ6hPb-45">
          <mxGeometry relative="1" as="geometry">
            <mxPoint x="108" y="79" as="sourcePoint" />
            <mxPoint x="108" y="80" as="targetPoint" />
          </mxGeometry>
        </mxCell>
      </root>
    </mxGraphModel>
  </diagram>
</mxfile>
